<svg width="113" height="51" viewBox="0 0 113 51" fill="none" xmlns="http://www.w3.org/2000/svg"><path d="M13.396 33.476c-2.403 0-4.5-.442-6.29-1.326-1.768-.884-3.14-2.12-4.114-3.706-.952-1.587-1.428-3.4-1.428-5.44 0-2.72.623-5.168 1.87-7.344 1.27-2.176 3.026-3.876 5.27-5.1 2.267-1.224 4.84-1.836 7.718-1.836 2.403 0 4.488.442 6.256 1.326 1.79.884 3.162 2.12 4.114 3.706.975 1.587 1.462 3.4 1.462 5.44 0 2.72-.635 5.168-1.904 7.344-1.247 2.176-3.003 3.876-5.27 5.1-2.244 1.224-4.805 1.836-7.684 1.836zm.578-5.576c1.496 0 2.81-.374 3.944-1.122a7.445 7.445 0 002.618-2.992c.612-1.27.918-2.663.918-4.182 0-1.61-.499-2.89-1.496-3.842-.975-.975-2.346-1.462-4.114-1.462-1.496 0-2.81.374-3.944 1.122-1.133.748-2.006 1.757-2.618 3.026-.612 1.247-.918 2.63-.918 4.148 0 1.61.487 2.901 1.462 3.876.997.952 2.38 1.428 4.148 1.428zm33.673-7.004L52.713 33h-7.14l-3.57-9.112h-3.4L36.767 33h-6.732l4.76-23.8h6.732l-1.836 9.248h2.856L50.06 9.2h7.48l-9.894 11.696zM82.974 9.2L78.213 33H71.48l1.837-9.248H64.17L62.335 33h-6.732l4.76-23.8h6.733l-1.769 8.908h9.147L76.24 9.2h6.733zm18.599 19.176H91.441L88.687 33h-7.106L96.847 9.2h6.63l5.746 23.8h-6.698l-.952-4.624zm-1.02-4.964l-1.598-7.718-4.556 7.718h6.154z" fill="#1A62AF"/><path d="M34.232 37.8c1.45 0 2.57.315 3.36.944.79.63 1.184 1.515 1.184 2.656 0 .939-.23 1.76-.688 2.464-.448.704-1.093 1.248-1.936 1.632-.832.384-1.803.576-2.912.576H31L30.424 49h-3.168l2.24-11.2h4.736zm-.848 5.776c.704 0 1.243-.165 1.616-.496.384-.33.576-.8.576-1.408 0-.459-.155-.8-.464-1.024-.299-.235-.73-.352-1.296-.352h-1.664l-.656 3.28h1.888zm13.017 5.648c-1.13 0-2.118-.208-2.96-.624-.832-.416-1.477-.997-1.936-1.744-.448-.747-.672-1.6-.672-2.56 0-1.28.293-2.432.88-3.456a6.314 6.314 0 012.48-2.4c1.067-.576 2.277-.864 3.632-.864 1.13 0 2.112.208 2.944.624.843.416 1.488.997 1.936 1.744.459.747.688 1.6.688 2.56 0 1.28-.299 2.432-.896 3.456a6.178 6.178 0 01-2.48 2.4c-1.056.576-2.262.864-3.616.864zm.272-2.624c.704 0 1.322-.176 1.856-.528a3.504 3.504 0 001.232-1.408 4.471 4.471 0 00.432-1.968c0-.757-.235-1.36-.704-1.808-.459-.459-1.104-.688-1.936-.688-.704 0-1.323.176-1.856.528a3.48 3.48 0 00-1.232 1.424 4.37 4.37 0 00-.432 1.952c0 .757.23 1.365.688 1.824.47.448 1.12.672 1.952.672zm14.608 2.624c-1.131 0-2.123-.203-2.977-.608-.853-.416-1.509-.997-1.968-1.744-.458-.747-.688-1.605-.688-2.576 0-1.28.294-2.432.88-3.456a6.286 6.286 0 012.497-2.4c1.066-.576 2.282-.864 3.648-.864 1.034 0 1.951.187 2.751.56.8.363 1.398.88 1.792 1.552l-2.287 1.824c-.544-.875-1.366-1.312-2.465-1.312-.714 0-1.343.17-1.887.512a3.44 3.44 0 00-1.28 1.392c-.3.587-.448 1.248-.448 1.984 0 .757.245 1.365.736 1.824.49.459 1.157.688 2 .688 1.066 0 1.978-.432 2.735-1.296l1.873 1.84c-.608.736-1.318 1.27-2.129 1.6-.81.32-1.738.48-2.783.48zm13.003 0c-1.131 0-2.123-.203-2.976-.608-.854-.416-1.51-.997-1.968-1.744-.459-.747-.688-1.605-.688-2.576 0-1.28.293-2.432.88-3.456a6.288 6.288 0 012.496-2.4c1.066-.576 2.282-.864 3.648-.864 1.034 0 1.952.187 2.752.56.8.363 1.397.88 1.792 1.552l-2.288 1.824c-.544-.875-1.366-1.312-2.464-1.312-.715 0-1.344.17-1.888.512-.544.33-.971.795-1.28 1.392-.299.587-.448 1.248-.448 1.984 0 .757.245 1.365.736 1.824.49.459 1.157.688 2 .688 1.066 0 1.978-.432 2.736-1.296l1.872 1.84c-.608.736-1.318 1.27-2.128 1.6-.811.32-1.739.48-2.784.48zM83.729 37.8h3.12l-1.36 6.576 5.936-6.576h3.024L92.21 49h-3.12l1.36-6.56L84.513 49H81.49l2.24-11.2zm14.425 0h3.12l-1.36 6.576 5.936-6.576h3.024l-2.24 11.2h-3.12l1.36-6.56L98.938 49h-3.024l2.24-11.2z" fill="#ED1C24"/></svg>